<?xml version="1.0" encoding="utf-8"?>
<!-- Generator: Adobe Illustrator 24.3.0, SVG Export Plug-In . SVG Version: 6.00 Build 0)  -->
<svg version="1.1" xmlns="http://www.w3.org/2000/svg" xmlns:xlink="http://www.w3.org/1999/xlink" x="0px" y="0px"
	 viewBox="0 0 2500 2500" style="enable-background:new 0 0 2500 2500;" xml:space="preserve">
<style type="text/css">
	.st0{display:none;}
	.st1{display:inline;fill:url(#SVGID_1_);}
	.st2{display:inline;fill:url(#SVGID_2_);}
	.st3{display:inline;fill:#FFFFFF;}
	.st4{fill:#006699;}
	.st5{fill:#FFFFFF;}
	.st6{display:inline;fill:#0057FF;}
</style>
<g id="Calque_1" class="st0">
	
		<radialGradient id="SVGID_1_" cx="-91.8026" cy="-482.766" r="4271.9199" gradientTransform="matrix(0.743 0 0 -0.743 230.0076 2086.5337)" gradientUnits="userSpaceOnUse">
		<stop  offset="9.000000e-02" style="stop-color:#FA8F21"/>
		<stop  offset="0.78" style="stop-color:#D82D7E"/>
	</radialGradient>
	<path class="st1" d="M633.9,2491.2c-148.7-6.8-229.4-31.5-283.2-52.5c-71.2-27.7-121.9-60.7-175.3-114.1
		c-53.4-53.3-86.5-104.1-114.1-175.3c-21-53.7-45.7-134.5-52.5-283.2C1.5,1705.5,0,1657.3,0,1250.1s1.6-455.3,8.8-616.2
		c6.8-148.7,31.7-229.3,52.5-283.2c27.7-71.2,60.8-121.9,114.1-175.4C228.7,122,279.4,88.9,350.7,61.3
		c53.7-21,134.5-45.7,283.2-52.5C794.6,1.5,842.9,0,1250,0c407.2,0,455.3,1.6,616.2,8.8c148.7,6.8,229.3,31.7,283.2,52.5
		c71.2,27.6,121.9,60.7,175.3,114.1c53.4,53.3,86.3,104.2,114.1,175.3c21,53.7,45.7,134.5,52.5,283.2c7.4,160.9,8.8,209,8.8,616.2
		c0,407-1.5,455.3-8.8,616.2c-6.8,148.7-31.7,229.4-52.5,283.2c-27.7,71.2-60.7,121.9-114.1,175.3
		c-53.3,53.3-104.2,86.3-175.3,114.1c-53.7,21-134.5,45.7-283.2,52.5c-160.7,7.4-209,8.8-616.2,8.8
		C842.9,2500,794.6,2498.6,633.9,2491.2"/>
	
		<radialGradient id="SVGID_2_" cx="2021.0475" cy="-374.726" r="3759.3301" gradientTransform="matrix(0.743 0 0 -0.743 230.0076 2086.5337)" gradientUnits="userSpaceOnUse">
		<stop  offset="0.64" style="stop-color:#8C3AAA;stop-opacity:0"/>
		<stop  offset="1" style="stop-color:#8C3AAA"/>
	</radialGradient>
	<path class="st2" d="M633.9,2491.2c-148.7-6.8-229.4-31.5-283.2-52.5c-71.2-27.7-121.9-60.7-175.3-114.1
		c-53.4-53.3-86.5-104.1-114.1-175.3c-21-53.7-45.7-134.5-52.5-283.2C1.5,1705.5,0,1657.3,0,1250.1s1.6-455.3,8.8-616.2
		c6.8-148.7,31.7-229.3,52.5-283.2c27.7-71.2,60.8-121.9,114.1-175.4C228.7,122,279.4,88.9,350.7,61.3
		c53.7-21,134.5-45.7,283.2-52.5C794.6,1.5,842.9,0,1250,0c407.2,0,455.3,1.6,616.2,8.8c148.7,6.8,229.3,31.7,283.2,52.5
		c71.2,27.6,121.9,60.7,175.3,114.1c53.4,53.3,86.3,104.2,114.1,175.3c21,53.7,45.7,134.5,52.5,283.2c7.4,160.9,8.8,209,8.8,616.2
		c0,407-1.5,455.3-8.8,616.2c-6.8,148.7-31.7,229.4-52.5,283.2c-27.7,71.2-60.7,121.9-114.1,175.3
		c-53.3,53.3-104.2,86.3-175.3,114.1c-53.7,21-134.5,45.7-283.2,52.5c-160.7,7.4-209,8.8-616.2,8.8
		C842.9,2500,794.6,2498.6,633.9,2491.2"/>
	<path class="st3" d="M943.1,1255.3c0-171,138.6-309.6,309.5-309.6s309.6,138.6,309.6,309.6s-138.6,309.6-309.6,309.6
		S943.1,1426.3,943.1,1255.3 M775.7,1255.3c0,263.4,213.5,476.9,476.9,476.9s476.9-213.5,476.9-476.9S1516,778.4,1252.6,778.4
		S775.7,991.9,775.7,1255.3 M1636.9,759.5c0,61.6,49.9,111.5,111.4,111.5c61.6,0,111.5-49.9,111.5-111.4s-49.9-111.5-111.4-111.5h0
		C1686.9,648.1,1637,698,1636.9,759.5 M877.4,2011.3c-90.6-4.1-139.8-19.2-172.5-31.9c-43.4-16.9-74.3-37-106.8-69.5
		c-32.5-32.5-52.7-63.4-69.5-106.8c-12.8-32.7-27.8-81.9-31.9-172.5c-4.5-97.9-5.4-127.3-5.4-375.3s1-277.4,5.4-375.3
		c4.1-90.6,19.3-139.7,31.9-172.5c16.9-43.4,37-74.3,69.5-106.8s63.4-52.7,106.8-69.5c32.7-12.8,81.9-27.8,172.5-31.9
		c97.9-4.5,127.3-5.4,375.2-5.4s277.4,1,375.3,5.4c90.6,4.1,139.7,19.3,172.5,31.9c43.4,16.8,74.3,37,106.8,69.5
		c32.5,32.5,52.6,63.5,69.5,106.8c12.8,32.7,27.8,81.9,31.9,172.5c4.5,98,5.4,127.3,5.4,375.3s-0.9,277.4-5.4,375.3
		c-4.1,90.6-19.3,139.8-31.9,172.5c-16.9,43.4-37,74.3-69.5,106.8c-32.5,32.5-63.5,52.6-106.8,69.5c-32.7,12.8-81.9,27.8-172.5,31.9
		c-97.9,4.5-127.3,5.4-375.3,5.4S975.3,2015.8,877.4,2011.3 M869.7,332.2c-98.9,4.5-166.4,20.2-225.4,43.1
		c-61.1,23.7-112.8,55.5-164.5,107.1S396.3,585.8,372.6,647c-23,59-38.6,126.6-43.1,225.4c-4.6,99-5.6,130.7-5.6,382.9
		s1,283.9,5.6,382.9c4.5,98.9,20.2,166.4,43.1,225.4c23.7,61.1,55.4,112.9,107.1,164.5s103.4,83.4,164.5,107.1
		c59.1,23,126.6,38.6,225.4,43.1c99.1,4.5,130.7,5.6,382.9,5.6s283.9-1,382.9-5.6c98.9-4.5,166.4-20.2,225.4-43.1
		c61.1-23.8,112.8-55.5,164.5-107.1s83.4-103.5,107.1-164.5c23-59,38.7-126.6,43.1-225.4c4.5-99.1,5.6-130.7,5.6-382.9
		s-1-283.9-5.6-382.9c-4.5-98.9-20.2-166.4-43.1-225.4c-23.8-61.1-55.5-112.8-107.1-164.5C1973.9,430.8,1922,399,1861,375.3
		c-59.1-23-126.6-38.7-225.4-43.1c-99-4.5-130.7-5.6-382.9-5.6S968.8,327.6,869.7,332.2"/>
</g>
<g id="Calque_2">
	<path class="st4" d="M638.1,0.8c407.9,0,815.7,0,1223.6,0c2.9,1,5.7,2.7,8.6,3c20.7,2.1,41.5,3.2,62.1,6.1
		c34.7,4.9,69.3,11.2,102.6,22.5c20.9,7.1,42.1,13.4,62.3,21.9c35.4,14.8,69.1,32.9,101.7,53.4c40.4,25.4,76.6,55.8,110.1,89.3
		c36.9,36.9,69.5,77.5,96.4,122.6c20.6,34.5,38.3,70.4,52.5,108c11.7,30.9,20.6,62.7,27.5,95.1c8.9,41.9,14.1,84.3,14.1,126.8
		c0.6,389,0.3,778.1,0.4,1167.1c0,40.6-1.7,81.1-7.5,121.4c-5,34.5-12.4,68.5-22.9,101.8c-10,31.5-21.2,62.7-37,91.8
		c-15.1,27.9-30.4,56-48.4,82c-17.9,25.9-38.1,50.3-59.4,73.5c-20.3,22.1-41.8,43.6-65.3,62.1c-28.2,22.3-58.6,42-89,61.3
		c-29.9,19-62.3,33.2-95.6,45.3c-32,11.6-64.6,21.4-98.2,27.9c-36.3,7.1-72.7,12.5-109.6,12.5c-307,0.1-614,0.1-921.1,0.1
		c-32.8,0-65.7-0.1-98.5,0.2c-20,0.2-40,1.7-60,1.4c-60.1-0.9-120.3,3.1-180.3-2c-24.9-2.1-49.9-4.9-74.5-9.4
		c-22.3-4-44.4-10.1-66.2-16.5c-21.1-6.2-42.2-12.9-62.4-21.5c-23.9-10.2-47.1-22-70.1-34.3c-50.5-27-95.5-61.6-136.3-101.7
		c-34.4-33.8-66.2-69.8-91.9-110.8c-11.4-18.2-23-36.5-32.8-55.6c-10.6-20.7-19.9-42.1-28.4-63.8c-8.3-21.2-15.7-42.8-21.7-64.8
		c-5.7-20.7-10.4-41.9-13.3-63.1c-4.3-31.4-9.5-63.2-9.5-94.8c-0.5-390.5,0-781.1,0-1171.6c0-44.2,1.5-88.1,8.3-131.9
		c6.1-39.5,14.9-78.4,29.1-115.7C50,408.3,64,376.5,79.9,346c13.5-25.9,29.6-50.6,46.7-74.4c27.5-38.1,59.8-72,94.9-103.4
		c28.5-25.5,58.9-48.3,91.5-68.1c32.2-19.5,65.7-36.3,100.7-50.2c37.4-14.9,75.6-26.9,115.2-33.6c34-5.8,68.5-8.4,102.8-12.6
		C633.9,3.5,636,1.8,638.1,0.8z M1367.7,1078.9c-0.8-0.2-1.5-0.5-2.3-0.7c-0.2-3.1-0.5-6.3-0.5-9.4c0-43.9,0.1-87.8,0.1-131.7
		c0-10.5-2-12.6-12.1-12.6c-122.1,0-244.3,0-366.4,0c-12,0-14.5,2.6-14.2,14.8c0.8,35.6,2.5,71.2,2.5,106.8
		c0,210.4-0.4,420.9-0.7,631.3c-0.1,84-0.4,168-0.7,252.1c0,3-0.1,6-0.2,9c-0.4,47.4-0.7,94.8-1,142.2c0,7,3.9,10.7,10.7,11
		c6,0.3,12,0,18,0c112.4,0,224.7,0,337.1,0c3.5,0,7,0,10.5,0.2c13.9,0.9,16.6-1.5,16.6-15.2c0-144.7,0-289.4,0-434.2
		c0-73.5-0.5-147,0.6-220.5c0.3-21.1,3.1-42.8,8.6-63.1c7.1-26.1,21-49.5,37.5-71.2c15-19.7,32.5-37,53.6-49.9
		c22.1-13.5,45.9-22.3,71.8-26.7c44.2-7.5,86.2-2.6,126.6,16.7c23.4,11.2,41.7,28.6,56.5,49.5c20.9,29.6,32.5,63.5,38.2,98.6
		c5.2,31.5,8,63.8,8.1,95.8c0.7,201.2,0.3,402.3,0.3,603.5c0,15.8,1.9,17.6,18,16.7c1.5-0.1,3-0.1,4.5-0.1
		c118.1,0.1,236.3,0.2,354.4,0.3c12.7,0,16-3.2,16-15.9c0-173.8,0.1-347.6-0.1-521.5c-0.1-53.4-0.1-106.8-1.8-160.2
		c-1.1-34,0.1-68.3-8.5-101.7c-1-3.8-0.7-8-1.5-11.9c-3.2-16.7-6.1-33.5-10.1-49.9c-3.1-12.8-7.3-25.5-11.9-37.8
		c-8.4-22.7-16.2-45.8-26.6-67.5c-15.5-32.3-34.7-62.6-58.6-89.4c-22.1-24.8-45.6-48-73.6-66.1c-13.8-8.9-27.9-17.6-42.4-25.3
		c-13.4-7.1-27.4-13.2-41.5-18.8c-10.9-4.3-22.3-7.4-33.6-10.4c-17.4-4.6-34.8-9-52.4-12.6c-8.5-1.8-17.4-1.7-26.2-2.3
		c-22.7-1.6-45.4-4.4-68.2-4.2c-21.2,0.2-42.5,2.9-63.5,5.7c-17.6,2.4-35.2,5.2-52.2,10.1c-17.9,5.1-35.1,12.7-52.5,19.6
		c-26,10.2-49.4,25.2-71.5,42.1c-31.5,24-58.2,52.8-81.3,84.9C1377,1065.6,1372.4,1072.3,1367.7,1078.9z M764.9,1508.2
		c0-190.1,0-380.2,0-570.4c0-11.4-1.7-13.3-13-13.3c-121.9,0-243.8,0-365.7,0c-13.4,0-15.8,2.5-15.8,15.8c0,378,0,756,0,1134
		c0,14.4,2.8,17.4,17,17.4c120.9,0,241.8,0,362.7,0c13.2,0,14.8-1.6,14.8-14.7C764.8,1887.4,764.8,1697.8,764.9,1508.2z M575.8,364
		c-34.1-0.6-63.2,3.8-91.7,14c-21.9,7.8-41.9,18.4-60.3,32.4c-34.2,26.2-56.9,60.7-68,101.7c-6.5,24.2-11,49.6-6.7,75.1
		c2.2,13.3,4.3,26.7,7.9,39.7c2.7,10,7,19.8,11.8,29c5.9,11.5,12.1,23.1,19.9,33.3c15.8,20.5,34.8,37.6,57.4,51.1
		c21.4,12.8,44.2,21.9,68.2,26.1c25.1,4.4,50.6,6.9,76.3,3.7c18.4-2.3,37-3.1,54.5-9.9c15.1-5.9,31-10.6,44.9-18.6
		c24.8-14.4,46.3-32.9,63.2-56.7c16.5-23.3,28.8-48.8,33.1-76.4c4.9-31.5,5.4-63.5-4.1-95.2c-7.2-24.1-17.2-46.2-31.8-66.5
		c-26.6-37.2-63.3-60.2-106.1-73.3C621,366.3,596.6,362.2,575.8,364z"/>
	<path class="st5" d="M1367.7,1078.9c4.7-6.7,9.3-13.4,14.1-20c23.1-32.1,49.8-60.9,81.3-84.9c22.1-16.8,45.4-31.9,71.5-42.1
		c17.4-6.8,34.6-14.4,52.5-19.6c17-4.9,34.7-7.8,52.2-10.1c21.1-2.8,42.3-5.6,63.5-5.7c22.7-0.2,45.4,2.6,68.2,4.2
		c8.7,0.6,17.7,0.6,26.2,2.3c17.6,3.6,35,8.1,52.4,12.6c11.3,3,22.7,6.1,33.6,10.4c14.1,5.6,28.1,11.7,41.5,18.8
		c14.5,7.7,28.6,16.4,42.4,25.3c28.1,18,51.6,41.3,73.6,66.1c24,26.9,43.1,57.2,58.6,89.4c10.5,21.7,18.2,44.8,26.6,67.5
		c4.6,12.4,8.8,25,11.9,37.8c4,16.5,6.9,33.3,10.1,49.9c0.8,3.9,0.5,8.1,1.5,11.9c8.7,33.4,7.5,67.7,8.5,101.7
		c1.7,53.4,1.7,106.8,1.8,160.2c0.2,173.8,0.1,347.6,0.1,521.5c0,12.7-3.3,15.9-16,15.9c-118.1-0.1-236.3-0.2-354.4-0.3
		c-1.5,0-3,0-4.5,0.1c-16.1,0.9-18-0.9-18-16.7c0-201.2,0.4-402.3-0.3-603.5c-0.1-32-2.9-64.2-8.1-95.8c-5.8-35.1-17.3-69-38.2-98.6
		c-14.8-20.9-33-38.3-56.5-49.5c-40.4-19.3-82.4-24.2-126.6-16.7c-25.9,4.4-49.7,13.2-71.8,26.7c-21.1,12.9-38.5,30.2-53.6,49.9
		c-16.5,21.7-30.4,45.1-37.5,71.2c-5.6,20.3-8.3,42-8.6,63.1c-1.1,73.5-0.6,147-0.6,220.5c0,144.7,0,289.4,0,434.2
		c0,13.7-2.7,16.1-16.6,15.2c-3.5-0.2-7-0.2-10.5-0.2c-112.4,0-224.7,0-337.1,0c-6,0-12,0.2-18,0c-6.8-0.3-10.7-4-10.7-11
		c0.3-47.4,0.7-94.8,1-142.2c0-3,0.2-6,0.2-9c0.2-84,0.5-168,0.7-252.1c0.3-210.4,0.7-420.9,0.7-631.3c0-35.6-1.6-71.2-2.5-106.8
		c-0.3-12.2,2.2-14.8,14.2-14.8c122.1,0,244.3,0,366.4,0c10.1,0,12.1,2.1,12.1,12.6c0,43.9-0.1,87.8-0.1,131.7
		c0,3.1,0.3,6.3,0.5,9.4C1366.2,1078.4,1366.9,1078.7,1367.7,1078.9z"/>
	<path class="st5" d="M764.9,1508.2c0,189.6,0,379.2,0,568.9c0,13.1-1.5,14.7-14.8,14.7c-120.9,0-241.8,0-362.7,0
		c-14.2,0-17-3-17-17.4c0-378,0-756,0-1134c0-13.3,2.3-15.8,15.8-15.8c121.9,0,243.8,0,365.7,0c11.3,0,13,1.9,13,13.3
		C764.9,1127.9,764.9,1318.1,764.9,1508.2z"/>
	<path class="st5" d="M575.8,364c20.7-1.8,45.2,2.2,68.5,9.4c42.8,13.2,79.5,36.2,106.1,73.3c14.6,20.3,24.6,42.4,31.8,66.5
		c9.4,31.7,9,63.7,4.1,95.2c-4.3,27.6-16.5,53.1-33.1,76.4c-16.9,23.8-38.4,42.3-63.2,56.7c-13.9,8.1-29.8,12.7-44.9,18.6
		c-17.5,6.8-36.1,7.7-54.5,9.9c-25.7,3.2-51.3,0.7-76.3-3.7c-24.1-4.2-46.8-13.3-68.2-26.1c-22.6-13.5-41.5-30.6-57.4-51.1
		c-7.9-10.2-14-21.8-19.9-33.3c-4.8-9.3-9-19-11.8-29c-3.5-13-5.6-26.4-7.9-39.7c-4.3-25.6,0.2-50.9,6.7-75.1
		c11-41.1,33.7-75.5,68-101.7c18.4-14.1,38.4-24.6,60.3-32.4C512.6,367.8,541.7,363.5,575.8,364z"/>
</g>
<g id="Calque_3" class="st0">
	<path class="st3" d="M1650.3,920.3c-77.8,0-155.7,0-233.5,0c-9.2,0-9.8-0.5-9.8-9.8c0-34.1,0.2-68.3-0.1-102.4
		c-0.1-7.3,1.8-10.1,9.7-10.1c155.4,0.2,310.8,0.1,466.2,0.2c11.1,0,11.1,0.1,11.1,11.5c0,33.1,0.1,66.3,0.1,99.4
		c0,10.7-0.5,11.2-10.9,11.2C1805.5,920.4,1727.9,920.4,1650.3,920.3C1650.3,920.4,1650.3,920.3,1650.3,920.3z"/>
	<path class="st3" d="M1497,1437.8c3.1,48,20.3,88.3,56.3,119.2c32.7,28.1,71.2,39.4,114.2,37.4c20.5-1,40.3-3.4,59.5-11
		c28.9-11.4,50.6-31.1,67-57c3.7-5.8,7.5-8.2,14.5-8.2c58.8,0.3,117.5,0.1,176.3,0.2c10.2,0,10.4,0.4,7.7,10.1
		c-17,60.3-50.3,109.9-98.5,149.6c-30.1,24.8-63.7,43.1-100.3,56.5c-52.9,19.4-107.5,26.1-163.4,22.2c-34.3-2.4-67.7-9.7-100.2-21.7
		c-82.4-30.3-143.5-84.5-184.4-161.7c-16.4-30.9-27.1-63.9-34.2-98.3c-7-33.6-10.6-67.4-9.4-101.6c3.1-89.4,29.5-170.4,88.5-239.2
		c33.5-39,73.6-69.2,120.9-89.9c26.1-11.4,52.9-20,80.9-24.4c34.6-5.4,69.3-6.7,104-0.9c21.7,3.6,43.7,6.5,64.7,12.5
		c72.3,20.6,130.3,62,173,124c27.8,40.4,45.1,85.2,55.6,133c10.2,46,11,92.4,9.9,139.1c-0.2,10-0.4,10-11,10
		c-160.7,0-321.4,0-482.1,0C1503.7,1437.8,1500.9,1437.8,1497,1437.8z M1499.1,1305.8c4.4,0,7.4,0,10.3,0c37.2,0,74.3,0,111.5,0
		c55.5,0,111-0.1,166.5,0.2c7.3,0,9.4-2.5,8.3-9.1c-1.5-8.9-2.5-17.9-4.7-26.6c-9.2-35.3-28.1-63.3-61.2-80.7
		c-16.4-8.6-33.9-12.9-52.2-15.8c-31-4.9-61.1-2.1-90.1,9.4c-36,14.3-61.1,40.4-76.6,75.7
		C1504.5,1273.5,1500.7,1288.7,1499.1,1305.8z"/>
	<path class="st3" d="M1070.5,1220.9c26.4,7.7,49.7,18.9,71.1,34.2c37.3,26.7,64.2,61.6,81.6,103.9c16.9,41,22,83.9,17.8,127.6
		c-6.2,65.1-31.1,122-79,167.7c-28.5,27.2-61.8,46.7-98.8,60.2c-34.2,12.4-69.3,19.3-105.6,21.1c-13.8,0.7-27.6,1.4-41.3,1.4
		c-140.9,0.1-281.7,0.1-422.6,0.1c-11.1,0-11.2,0-11.2-11.4c0-324.4,0-648.8,0-973.2c0-12.8,0.1-12.8,12.9-12.8
		c139.6,0,279.2-0.3,418.8,0.1c46.4,0.2,91.9,7.6,135.3,24.9c58.9,23.4,105.5,61.2,134.2,118.9c13.4,26.9,21,55.4,25,85.3
		c4,29.8,3.5,59.2-3.2,88.2c-17.1,74.1-58.4,129.2-129.1,160.4c-0.9,0.4-1.8,0.9-2.7,1.3C1073.1,1219.3,1072.5,1219.7,1070.5,1220.9
		z M678.1,1312.5c0,3.5,0,5.7,0,7.9c0,80.1,0,160.1,0,240.2c0,10-0.1,10,9.8,10c67.8,0,135.5,0.2,203.3-0.1
		c26.6-0.1,52.9-2.9,78.1-12.5c36.8-14.1,61.5-39.7,70.3-78.2c5.9-26.1,5.4-52.9-2.4-78.8c-9.4-31.3-28.6-54.8-57.7-70
		c-26.2-13.7-54.7-18.2-83.6-18.4c-69.5-0.6-139-0.2-208.5-0.1C684.7,1312.5,682,1312.5,678.1,1312.5z M678.1,1027.8
		c0,37.7,0,75.3,0,113c0,4.1-0.7,7.7,5.9,7.7c62.5-0.3,125-0.4,187.5-0.3c24,0,47.5-2.4,70-11.4c49.5-19.7,69.7-57.7,73.3-101
		c1.1-13-0.5-26.5-2.5-39.5c-6.6-42.7-36.4-68.9-74.8-80.5c-23.9-7.3-48.5-8-73-8.2c-59-0.5-118,0-177-0.3c-7,0-9.6,1.7-9.5,9.2
		C678.3,953.5,678.1,990.6,678.1,1027.8z"/>
	<path class="st6" d="M2499.4,1248c0,200.6,0.6,401.3-0.5,601.9c-0.2,40.9-3.5,82.2-13.9,122.3c-3.4,13.1-5.1,26.6-8.3,39.7
		c-2.4,9.7-6,19-9.1,28.5c-2.5,7.6-4.7,15.3-7.8,22.7c-9.9,23.7-19.8,47.3-30.4,70.7c-15.6,34.7-36.7,66.1-59,96.7
		c-11.9,16.4-25.4,31.7-39,46.9c-28.1,31.5-59.2,60-92.8,85.5c-27.4,20.8-56.1,39.4-86.8,54.9c-19.8,10-39.7,19.9-60,28.8
		c-12.8,5.6-26.4,9.2-39.7,13.6c-10.7,3.6-21.3,7.5-32.1,10.5c-10.8,3.1-21.8,5.7-32.9,7.8c-17.2,3.2-34.7,5.5-51.9,8.8
		c-31.5,6.1-63.4,5.8-95.2,5.8c-318.7,0-637.3,0-956,0c-24.9,0-49.7-0.2-74.6,0c-54.7,0.4-109.4,2.1-164.1,1.2
		c-30.4-0.5-60.9-4.2-91.2-8c-20.3-2.6-40.4-7.1-60.2-12.2c-23-5.9-45.9-12.2-68.2-20.4c-22.4-8.3-44.6-17.7-65.7-29
		c-30.1-16.2-59.8-33.6-88.4-52.4c-17.9-11.8-34.4-26.1-49.9-41c-24.8-23.7-49.1-48-72-73.5c-20.4-22.7-38-47.8-53.3-74.4
		c-6.6-11.5-14.2-22.5-20.2-34.3c-8.3-16.2-16.2-32.7-23.2-49.4c-8-19.1-15.1-38.7-22.3-58.1c-2.9-8-5.8-16-7.6-24.3
		c-5.5-26-10.5-52-15.6-78C-0.7,1896.2,0,1852.6,0,1809c0.1-275.7,0-551.4,0.2-827.2c0.1-115.5,0.5-231,1.3-346.5
		c0.3-37.4,4.3-74.6,12.7-111.2c4.9-21,8.7-42.3,15.3-62.7c8.2-25.1,17.5-50.1,28.5-74.1c12-26.3,25.3-52.2,40.2-76.9
		c13-21.6,28.3-42,43.9-61.9c23.6-30,50.4-57,78.7-82.7c26.7-24.2,55.7-45.2,85.8-64.7c15.9-10.3,33-18.9,49.8-27.6
		c15.3-7.9,30.7-15.7,46.6-22.4c17.1-7.1,34.5-13.8,52.3-18.8c26.2-7.4,52.6-14.5,79.3-19.5c45.9-8.6,92.4-12,139.2-11.9
		c309.1,0.3,618.2,0.2,927.4,0.1c30.1,0,60.2-0.8,90.2-0.9c15.8-0.1,31.6,1,47.4,0.9c29.1-0.1,58.2-1.4,87.2-0.8
		c26,0.5,52.1,2.5,78,4.8c19.7,1.7,39.4,4.1,58.9,7.4c15,2.5,29.8,6.5,44.7,10.1c10.9,2.6,21.8,5.3,32.5,8.7
		c14.1,4.4,28.2,9,41.9,14.5c16.5,6.6,33,13.3,48.6,21.6c25.1,13.4,50,27.4,74.1,42.5c17.6,11,34.3,23.5,50.5,36.4
		c29.5,23.5,56,50.1,81.5,78c23.5,25.7,43.6,53.7,62.3,82.9c10.5,16.4,19.4,33.8,28.4,51.1c7.9,15.3,15.4,30.8,22.2,46.6
		c5.6,13.1,10.5,26.6,14.8,40.1c6.1,19,12.2,38.1,16.7,57.5c4.6,19.8,8,39.9,10.5,60c2.5,19.9,2.7,40,5.1,59.9
		c5.3,45.1,2.2,90.3,2.4,135.4C2499.7,921.1,2499.4,1084.6,2499.4,1248z M1070.5,1220.9c2-1.2,2.6-1.7,3.2-2
		c0.9-0.5,1.8-0.9,2.7-1.3c70.7-31.2,112-86.3,129.1-160.4c6.7-29,7.1-58.4,3.2-88.2c-4-29.9-11.7-58.4-25-85.3
		c-28.6-57.7-75.3-95.5-134.2-118.9c-43.3-17.2-88.8-24.7-135.3-24.9c-139.6-0.5-279.2-0.1-418.8-0.1c-12.9,0-12.9,0-12.9,12.8
		c0,324.4,0,648.8,0,973.2c0,11.4,0,11.4,11.2,11.4c140.9,0,281.7,0,422.6-0.1c13.8,0,27.6-0.8,41.3-1.4
		c36.2-1.8,71.4-8.7,105.6-21.1c37-13.5,70.3-33,98.8-60.2c47.9-45.7,72.8-102.6,79-167.7c4.2-43.7-0.9-86.6-17.8-127.6
		c-17.4-42.3-44.3-77.2-81.6-103.9C1120.3,1239.8,1096.9,1228.7,1070.5,1220.9z M1497,1437.8c4,0,6.7,0,9.4,0
		c160.7,0,321.4,0,482.1,0c10.6,0,10.8,0,11-10c1.1-46.7,0.2-93.2-9.9-139.1c-10.6-47.8-27.8-92.7-55.6-133
		c-42.7-62-100.7-103.4-173-124c-21.1-6-43.1-8.9-64.7-12.5c-34.7-5.8-69.4-4.5-104,0.9c-28,4.4-54.9,13-80.9,24.4
		c-47.3,20.7-87.4,50.8-120.9,89.9c-59,68.8-85.4,149.8-88.5,239.2c-1.2,34.2,2.4,68,9.4,101.6c7.1,34.4,17.8,67.3,34.2,98.3
		c40.9,77.2,102.1,131.4,184.4,161.7c32.5,12,65.9,19.3,100.2,21.7c55.9,3.9,110.5-2.8,163.4-22.2c36.6-13.4,70.2-31.7,100.3-56.5
		c48.2-39.7,81.6-89.3,98.5-149.6c2.7-9.7,2.5-10.1-7.7-10.1c-58.8,0-117.5,0.1-176.3-0.2c-7,0-10.8,2.4-14.5,8.2
		c-16.4,25.8-38.1,45.6-67,57c-19.2,7.6-39,10-59.5,11c-43.1,2.1-81.5-9.2-114.2-37.4C1517.3,1526,1500.1,1485.8,1497,1437.8z
		 M1650.3,920.3C1650.3,920.3,1650.3,920.4,1650.3,920.3c77.6,0,155.2,0,232.7,0c10.3,0,10.9-0.5,10.9-11.2
		c0-33.1-0.1-66.3-0.1-99.4c0-11.4,0-11.5-11.1-11.5c-155.4,0-310.8,0-466.2-0.2c-7.8,0-9.7,2.7-9.7,10.1
		c0.3,34.1,0.1,68.3,0.1,102.4c0,9.3,0.6,9.8,9.8,9.8C1494.7,920.3,1572.5,920.3,1650.3,920.3z"/>
	<path class="st6" d="M678.1,1312.5c3.8,0,6.6,0,9.3,0c69.5,0,139-0.5,208.5,0.1c28.9,0.2,57.4,4.7,83.6,18.4
		c29.1,15.2,48.3,38.7,57.7,70c7.8,26,8.4,52.8,2.4,78.8c-8.8,38.5-33.5,64-70.3,78.2c-25.2,9.7-51.5,12.4-78.1,12.5
		c-67.8,0.3-135.5,0.1-203.3,0.1c-9.9,0-9.8,0-9.8-10c0-80.1,0-160.1,0-240.2C678.1,1318.2,678.1,1316,678.1,1312.5z"/>
	<path class="st6" d="M678.1,1027.8c0-37.2,0.2-74.3-0.2-111.5c-0.1-7.5,2.5-9.2,9.5-9.2c59,0.2,118-0.2,177,0.3
		c24.5,0.2,49.1,0.9,73,8.2c38.4,11.7,68.2,37.8,74.8,80.5c2,13,3.6,26.5,2.5,39.5c-3.6,43.3-23.8,81.3-73.3,101
		c-22.5,9-46,11.4-70,11.4c-62.5-0.1-125,0-187.5,0.3c-6.6,0-5.9-3.6-5.9-7.7C678.1,1103.1,678.1,1065.4,678.1,1027.8z"/>
	<path class="st6" d="M1499.1,1305.8c1.7-17.1,5.4-32.3,11.8-46.8c15.5-35.3,40.6-61.4,76.6-75.7c28.9-11.5,59.1-14.3,90.1-9.4
		c18.2,2.9,35.7,7.1,52.2,15.8c33.1,17.4,52,45.4,61.2,80.7c2.2,8.7,3.2,17.7,4.7,26.6c1.2,6.6-1,9.1-8.3,9.1
		c-55.5-0.3-111-0.2-166.5-0.2c-37.2,0-74.3,0-111.5,0C1506.4,1305.8,1503.5,1305.8,1499.1,1305.8z"/>
</g>
</svg>
