<svg id="Calque_1" data-name="Calque 1" xmlns="http://www.w3.org/2000/svg" viewBox="0 0 239.89 73.39"><path d="M59.94,191.16c-12.16,0-20.89-9.79-20.89-26.55,0-16.52,8.73-26.55,20.89-26.55,5.9,0,10.26,1.54,13,3.9v9.91c-3.31-2.72-6.26-3.9-9.8-3.9C56,148,52,153.17,52,164.61c0,11,4,16.64,11.09,16.64a14.06,14.06,0,0,0,9.8-4v9.91C70,189.75,65.84,191.16,59.94,191.16Z" transform="translate(-39.05 -118.12)" style="fill:#fff"/><path d="M112.92,191c-5,0-8.14-1.88-9.2-6.49-5,5-8.85,6.73-14.16,6.73-6.49,0-11.33-5-11.33-12.39,0-11.92,11.09-18.76,25.13-20.18v-5c0-4.25-2.24-6.49-7.2-6.49-4.13,0-10.85,2.36-15.1,5.07v-9.79c3.42-1.89,10.86-4.72,17.58-4.72,9.44,0,17.35,3.42,17.35,14.63v29.85c0,1.89.7,2.83,2.12,2.83a3.86,3.86,0,0,0,1.89-.59v4.72C119.06,190.1,115.63,191,112.92,191Zm-9.56-25.13c-8.85,1.06-14,5.43-14,11.09,0,3.54,1.53,6.14,5,6.14,2.59,0,5.42-1.54,9.08-5.43Z" transform="translate(-39.05 -118.12)" style="fill:#fff"/><path d="M141.71,191.51A30.11,30.11,0,0,1,124.84,186l1.89-9c3.89,2.83,8.61,5.67,14.75,5.67,4.24,0,6.84-2.36,6.84-6.14s-2.6-5.19-7.79-7c-10.62-3.31-14.51-8.85-14.51-16.64s5.43-15.1,17.23-15.1c6.72,0,12.62,3.18,14.63,4.36l-2,8.5c-4.25-2.83-8.14-4.13-12.15-4.13-4.25,0-6.14,2.59-6.14,5.54,0,3.31,2.36,5.08,6.26,6.38,10.73,3.42,16,8.85,16,15.93C159.88,185.26,153.16,191.51,141.71,191.51Z" transform="translate(-39.05 -118.12)" style="fill:#fff"/><path d="M173.81,131.69a6.79,6.79,0,1,1,6.84-6.73A6.8,6.8,0,0,1,173.81,131.69Zm-6.38,58.41V139.36l13-1.53V190.1Z" transform="translate(-39.05 -118.12)" style="fill:#fff"/><path d="M222.42,191c-5,0-8.14-1.88-9.2-6.49-5,5-8.85,6.73-14.16,6.73-6.49,0-11.33-5-11.33-12.39,0-11.92,11.09-18.76,25.13-20.18v-5c0-4.25-2.24-6.49-7.19-6.49-4.13,0-10.86,2.36-15.11,5.07v-9.79c3.42-1.89,10.86-4.72,17.58-4.72,9.44,0,17.35,3.42,17.35,14.63v29.85c0,1.89.71,2.83,2.12,2.83a3.86,3.86,0,0,0,1.89-.59v4.72C228.56,190.1,225.13,191,222.42,191Zm-9.56-25.13c-8.85,1.06-14,5.43-14,11.09,0,3.54,1.54,6.14,5,6.14,2.59,0,5.43-1.54,9.08-5.43Z" transform="translate(-39.05 -118.12)" style="fill:#fff"/><path d="M266,190.1V157.65c0-7.32-2.12-9.91-6.72-9.91s-8.38,4.6-9.09,9.32v33h-13V139.6l12-1.42.47,8.26a17.44,17.44,0,0,1,14.28-8.5c10.85,0,15,7.56,15,17.7V190.1Z" transform="translate(-39.05 -118.12)" style="fill:#fff"/></svg>