<svg id="Calque_1" data-name="Calque 1" xmlns="http://www.w3.org/2000/svg" viewBox="0 0 372.83 475.71"><defs><style>.cls-1{fill:#151515;}</style></defs><path class="cls-1" d="M507.92,357.41c-19.15,22.74-38.19,45.36-57.35,68.1q-45.69,54.27-91.39,108.64c-7.05,8.4-14.11,16.69-21.05,25.09h23.74c-19.15-22.73-38.19-45.36-57.34-68.1q-45.7-54.25-91.39-108.64c-7.06-8.39-14.12-16.68-21.06-25.09-5.82-6.94-17.69-6-23.74,0-6.83,6.84-5.83,16.81,0,23.75,19.15,22.73,38.19,45.36,57.34,68.09q45.7,54.27,91.39,108.64c7.06,8.4,14.12,16.69,21.06,25.09,5.49,6.5,18.26,6.5,23.74,0,19.15-22.73,38.19-45.35,57.34-68.09q45.71-54.27,91.4-108.64c7-8.4,14.11-16.69,21-25.09,5.83-7,6.83-16.91,0-23.75-5.94-6-17.81-7.05-23.74,0Z" transform="translate(-163.59 -112.14)"/><path class="cls-1" d="M507.92,117.06c-19.15,22.74-38.19,45.36-57.35,68.1q-45.69,54.27-91.39,108.64c-7.05,8.4-14.11,16.69-21.05,25.09h23.74c-19.15-22.73-38.19-45.36-57.34-68.1q-45.7-54.25-91.39-108.64c-7.06-8.39-14.12-16.68-21.06-25.09-5.82-6.94-17.69-6-23.74,0-6.83,6.84-5.83,16.8,0,23.75,19.15,22.73,38.19,45.35,57.34,68.09q45.7,54.27,91.39,108.64c7.06,8.4,14.12,16.69,21.06,25.09,5.49,6.5,18.26,6.5,23.74,0,19.15-22.73,38.19-45.36,57.34-68.09q45.71-54.27,91.4-108.64c7-8.4,14.11-16.69,21-25.09,5.83-6.95,6.83-16.91,0-23.75-5.94-6-17.81-7-23.74,0Z" transform="translate(-163.59 -112.14)"/></svg>